<mxfile modified="2020-12-28T05:00:00.759Z" host="app.diagrams.net" agent="5.0 (Windows)" etag="bp3N1TYldwWYs4O--vby" version="14.1.2" type="github">
  <diagram id="WI9T0HZ2pTsCkuznbFz-" name="Page-1">
    <mxGraphModel dx="942" dy="583" grid="1" gridSize="10" guides="1" tooltips="1" connect="1" arrows="1" fold="1" page="1" pageScale="1" pageWidth="1169" pageHeight="827" math="0" shadow="0">
      <root>
        <mxCell id="0" />
        <mxCell id="1" parent="0" />
        <mxCell id="jYq79BZ2_ffSH_7sx6qd-4" style="edgeStyle=orthogonalEdgeStyle;rounded=0;orthogonalLoop=1;jettySize=auto;html=1;" edge="1" parent="1" source="jYq79BZ2_ffSH_7sx6qd-1" target="jYq79BZ2_ffSH_7sx6qd-3">
          <mxGeometry relative="1" as="geometry" />
        </mxCell>
        <mxCell id="jYq79BZ2_ffSH_7sx6qd-1" value="DAQ" style="rounded=0;whiteSpace=wrap;html=1;" vertex="1" parent="1">
          <mxGeometry x="280" y="354" width="120" height="60" as="geometry" />
        </mxCell>
        <mxCell id="jYq79BZ2_ffSH_7sx6qd-8" value="http" style="edgeStyle=orthogonalEdgeStyle;rounded=0;orthogonalLoop=1;jettySize=auto;html=1;" edge="1" parent="1" source="jYq79BZ2_ffSH_7sx6qd-2" target="jYq79BZ2_ffSH_7sx6qd-7">
          <mxGeometry relative="1" as="geometry" />
        </mxCell>
        <mxCell id="jYq79BZ2_ffSH_7sx6qd-2" value="Web服务器" style="aspect=fixed;html=1;points=[];align=center;image;fontSize=12;image=img/lib/mscae/CustomDomain.svg;" vertex="1" parent="1">
          <mxGeometry x="210" y="204" width="50" height="42" as="geometry" />
        </mxCell>
        <mxCell id="jYq79BZ2_ffSH_7sx6qd-5" style="edgeStyle=orthogonalEdgeStyle;rounded=0;orthogonalLoop=1;jettySize=auto;html=1;" edge="1" parent="1" source="jYq79BZ2_ffSH_7sx6qd-3" target="jYq79BZ2_ffSH_7sx6qd-2">
          <mxGeometry relative="1" as="geometry" />
        </mxCell>
        <mxCell id="jYq79BZ2_ffSH_7sx6qd-10" value="grpc" style="edgeStyle=orthogonalEdgeStyle;rounded=0;orthogonalLoop=1;jettySize=auto;html=1;" edge="1" parent="1" source="jYq79BZ2_ffSH_7sx6qd-3" target="jYq79BZ2_ffSH_7sx6qd-9">
          <mxGeometry relative="1" as="geometry" />
        </mxCell>
        <mxCell id="jYq79BZ2_ffSH_7sx6qd-12" style="edgeStyle=orthogonalEdgeStyle;rounded=0;orthogonalLoop=1;jettySize=auto;html=1;entryX=0.5;entryY=1;entryDx=0;entryDy=0;" edge="1" parent="1" source="jYq79BZ2_ffSH_7sx6qd-3" target="jYq79BZ2_ffSH_7sx6qd-11">
          <mxGeometry relative="1" as="geometry" />
        </mxCell>
        <mxCell id="jYq79BZ2_ffSH_7sx6qd-3" value="Service" style="aspect=fixed;html=1;points=[];align=center;image;fontSize=12;image=img/lib/mscae/WebHosting.svg;" vertex="1" parent="1">
          <mxGeometry x="315" y="254" width="50" height="50" as="geometry" />
        </mxCell>
        <mxCell id="jYq79BZ2_ffSH_7sx6qd-6" value="" style="endArrow=none;dashed=1;html=1;" edge="1" parent="1">
          <mxGeometry width="50" height="50" relative="1" as="geometry">
            <mxPoint x="70" y="174" as="sourcePoint" />
            <mxPoint x="600" y="174" as="targetPoint" />
          </mxGeometry>
        </mxCell>
        <mxCell id="jYq79BZ2_ffSH_7sx6qd-7" value="浏览器" style="aspect=fixed;html=1;points=[];align=center;image;fontSize=12;image=img/lib/azure2/general/Browser.svg;" vertex="1" parent="1">
          <mxGeometry x="202.5" y="34" width="65" height="52" as="geometry" />
        </mxCell>
        <mxCell id="jYq79BZ2_ffSH_7sx6qd-9" value="客户端" style="pointerEvents=1;shadow=0;dashed=0;html=1;strokeColor=none;fillColor=#434445;aspect=fixed;labelPosition=center;verticalLabelPosition=bottom;verticalAlign=top;align=center;outlineConnect=0;shape=mxgraph.vvd.web_browser;" vertex="1" parent="1">
          <mxGeometry x="315" y="42" width="50" height="35.5" as="geometry" />
        </mxCell>
        <mxCell id="jYq79BZ2_ffSH_7sx6qd-11" value="存储" style="aspect=fixed;perimeter=ellipsePerimeter;html=1;align=center;shadow=0;dashed=0;spacingTop=3;image;image=img/lib/active_directory/database.svg;" vertex="1" parent="1">
          <mxGeometry x="410" y="206" width="50" height="37" as="geometry" />
        </mxCell>
        <mxCell id="jYq79BZ2_ffSH_7sx6qd-16" value="完整功能的新采集设备" style="text;html=1;strokeColor=none;fillColor=none;align=center;verticalAlign=middle;whiteSpace=wrap;rounded=0;" vertex="1" parent="1">
          <mxGeometry x="20" y="50" width="150" height="20" as="geometry" />
        </mxCell>
        <mxCell id="jYq79BZ2_ffSH_7sx6qd-17" style="edgeStyle=orthogonalEdgeStyle;rounded=0;orthogonalLoop=1;jettySize=auto;html=1;" edge="1" parent="1" source="jYq79BZ2_ffSH_7sx6qd-18" target="jYq79BZ2_ffSH_7sx6qd-24">
          <mxGeometry relative="1" as="geometry" />
        </mxCell>
        <mxCell id="jYq79BZ2_ffSH_7sx6qd-18" value="DAQ" style="rounded=0;whiteSpace=wrap;html=1;" vertex="1" parent="1">
          <mxGeometry x="280" y="900" width="120" height="60" as="geometry" />
        </mxCell>
        <mxCell id="jYq79BZ2_ffSH_7sx6qd-23" style="edgeStyle=orthogonalEdgeStyle;rounded=0;orthogonalLoop=1;jettySize=auto;html=1;entryX=0.5;entryY=1;entryDx=0;entryDy=0;" edge="1" parent="1" source="jYq79BZ2_ffSH_7sx6qd-24" target="jYq79BZ2_ffSH_7sx6qd-28">
          <mxGeometry relative="1" as="geometry" />
        </mxCell>
        <mxCell id="jYq79BZ2_ffSH_7sx6qd-32" style="edgeStyle=orthogonalEdgeStyle;rounded=0;orthogonalLoop=1;jettySize=auto;html=1;" edge="1" parent="1" source="jYq79BZ2_ffSH_7sx6qd-24" target="jYq79BZ2_ffSH_7sx6qd-27">
          <mxGeometry relative="1" as="geometry" />
        </mxCell>
        <mxCell id="jYq79BZ2_ffSH_7sx6qd-24" value="Service" style="aspect=fixed;html=1;points=[];align=center;image;fontSize=12;image=img/lib/mscae/WebHosting.svg;" vertex="1" parent="1">
          <mxGeometry x="315" y="790" width="50" height="50" as="geometry" />
        </mxCell>
        <mxCell id="jYq79BZ2_ffSH_7sx6qd-27" value="客户端" style="pointerEvents=1;shadow=0;dashed=0;html=1;strokeColor=none;fillColor=#434445;aspect=fixed;labelPosition=center;verticalLabelPosition=bottom;verticalAlign=top;align=center;outlineConnect=0;shape=mxgraph.vvd.web_browser;" vertex="1" parent="1">
          <mxGeometry x="315" y="650" width="50" height="35.5" as="geometry" />
        </mxCell>
        <mxCell id="jYq79BZ2_ffSH_7sx6qd-28" value="存储" style="aspect=fixed;perimeter=ellipsePerimeter;html=1;align=center;shadow=0;dashed=0;spacingTop=3;image;image=img/lib/active_directory/database.svg;" vertex="1" parent="1">
          <mxGeometry x="410" y="752" width="50" height="37" as="geometry" />
        </mxCell>
        <mxCell id="jYq79BZ2_ffSH_7sx6qd-29" value="" style="endArrow=none;dashed=1;html=1;" edge="1" parent="1">
          <mxGeometry width="50" height="50" relative="1" as="geometry">
            <mxPoint x="70" y="888" as="sourcePoint" />
            <mxPoint x="580" y="888" as="targetPoint" />
          </mxGeometry>
        </mxCell>
        <mxCell id="jYq79BZ2_ffSH_7sx6qd-31" value="最简功能（当前）采集设备" style="text;html=1;strokeColor=none;fillColor=none;align=center;verticalAlign=middle;whiteSpace=wrap;rounded=0;" vertex="1" parent="1">
          <mxGeometry x="20" y="596" width="150" height="20" as="geometry" />
        </mxCell>
        <mxCell id="jYq79BZ2_ffSH_7sx6qd-34" value="LabGenius" style="text;html=1;strokeColor=none;fillColor=none;align=center;verticalAlign=middle;whiteSpace=wrap;rounded=0;" vertex="1" parent="1">
          <mxGeometry x="163" y="650" width="40" height="20" as="geometry" />
        </mxCell>
        <mxCell id="jYq79BZ2_ffSH_7sx6qd-37" style="edgeStyle=orthogonalEdgeStyle;rounded=0;orthogonalLoop=1;jettySize=auto;html=1;" edge="1" parent="1" source="jYq79BZ2_ffSH_7sx6qd-38" target="jYq79BZ2_ffSH_7sx6qd-44">
          <mxGeometry relative="1" as="geometry" />
        </mxCell>
        <mxCell id="jYq79BZ2_ffSH_7sx6qd-38" value="DAQ" style="rounded=0;whiteSpace=wrap;html=1;" vertex="1" parent="1">
          <mxGeometry x="270" y="1450" width="120" height="60" as="geometry" />
        </mxCell>
        <mxCell id="jYq79BZ2_ffSH_7sx6qd-39" value="http" style="edgeStyle=orthogonalEdgeStyle;rounded=0;orthogonalLoop=1;jettySize=auto;html=1;" edge="1" parent="1" source="jYq79BZ2_ffSH_7sx6qd-40" target="jYq79BZ2_ffSH_7sx6qd-46">
          <mxGeometry relative="1" as="geometry" />
        </mxCell>
        <mxCell id="jYq79BZ2_ffSH_7sx6qd-40" value="Web服务器" style="aspect=fixed;html=1;points=[];align=center;image;fontSize=12;image=img/lib/mscae/CustomDomain.svg;" vertex="1" parent="1">
          <mxGeometry x="200" y="1190" width="50" height="42" as="geometry" />
        </mxCell>
        <mxCell id="jYq79BZ2_ffSH_7sx6qd-41" style="edgeStyle=orthogonalEdgeStyle;rounded=0;orthogonalLoop=1;jettySize=auto;html=1;" edge="1" parent="1" source="jYq79BZ2_ffSH_7sx6qd-44" target="jYq79BZ2_ffSH_7sx6qd-40">
          <mxGeometry relative="1" as="geometry" />
        </mxCell>
        <mxCell id="jYq79BZ2_ffSH_7sx6qd-42" value="grpc" style="edgeStyle=orthogonalEdgeStyle;rounded=0;orthogonalLoop=1;jettySize=auto;html=1;" edge="1" parent="1" source="jYq79BZ2_ffSH_7sx6qd-44" target="jYq79BZ2_ffSH_7sx6qd-47">
          <mxGeometry relative="1" as="geometry" />
        </mxCell>
        <mxCell id="jYq79BZ2_ffSH_7sx6qd-43" style="edgeStyle=orthogonalEdgeStyle;rounded=0;orthogonalLoop=1;jettySize=auto;html=1;entryX=0.5;entryY=1;entryDx=0;entryDy=0;" edge="1" parent="1" source="jYq79BZ2_ffSH_7sx6qd-44" target="jYq79BZ2_ffSH_7sx6qd-48">
          <mxGeometry relative="1" as="geometry" />
        </mxCell>
        <mxCell id="jYq79BZ2_ffSH_7sx6qd-44" value="Service" style="aspect=fixed;html=1;points=[];align=center;image;fontSize=12;image=img/lib/mscae/WebHosting.svg;" vertex="1" parent="1">
          <mxGeometry x="305" y="1240" width="50" height="50" as="geometry" />
        </mxCell>
        <mxCell id="jYq79BZ2_ffSH_7sx6qd-45" value="" style="endArrow=none;dashed=1;html=1;" edge="1" parent="1">
          <mxGeometry width="50" height="50" relative="1" as="geometry">
            <mxPoint x="60" y="1160" as="sourcePoint" />
            <mxPoint x="590" y="1160" as="targetPoint" />
          </mxGeometry>
        </mxCell>
        <mxCell id="jYq79BZ2_ffSH_7sx6qd-46" value="浏览器" style="aspect=fixed;html=1;points=[];align=center;image;fontSize=12;image=img/lib/azure2/general/Browser.svg;" vertex="1" parent="1">
          <mxGeometry x="192.5" y="1020" width="65" height="52" as="geometry" />
        </mxCell>
        <mxCell id="jYq79BZ2_ffSH_7sx6qd-47" value="客户端" style="pointerEvents=1;shadow=0;dashed=0;html=1;strokeColor=none;fillColor=#434445;aspect=fixed;labelPosition=center;verticalLabelPosition=bottom;verticalAlign=top;align=center;outlineConnect=0;shape=mxgraph.vvd.web_browser;" vertex="1" parent="1">
          <mxGeometry x="305" y="1028" width="50" height="35.5" as="geometry" />
        </mxCell>
        <mxCell id="jYq79BZ2_ffSH_7sx6qd-48" value="存储" style="aspect=fixed;perimeter=ellipsePerimeter;html=1;align=center;shadow=0;dashed=0;spacingTop=3;image;image=img/lib/active_directory/database.svg;" vertex="1" parent="1">
          <mxGeometry x="400" y="1192" width="50" height="37" as="geometry" />
        </mxCell>
        <mxCell id="jYq79BZ2_ffSH_7sx6qd-49" value="" style="endArrow=none;dashed=1;html=1;" edge="1" parent="1">
          <mxGeometry width="50" height="50" relative="1" as="geometry">
            <mxPoint x="50" y="1320" as="sourcePoint" />
            <mxPoint x="560" y="1320" as="targetPoint" />
          </mxGeometry>
        </mxCell>
        <mxCell id="jYq79BZ2_ffSH_7sx6qd-50" value="物联网采集设备" style="text;html=1;strokeColor=none;fillColor=none;align=center;verticalAlign=middle;whiteSpace=wrap;rounded=0;" vertex="1" parent="1">
          <mxGeometry x="10" y="1036" width="150" height="20" as="geometry" />
        </mxCell>
        <mxCell id="jYq79BZ2_ffSH_7sx6qd-51" value="边缘计算模块" style="outlineConnect=0;fontColor=#232F3E;gradientColor=#4AB29A;gradientDirection=north;fillColor=#116D5B;strokeColor=#ffffff;dashed=0;verticalLabelPosition=bottom;verticalAlign=top;align=center;html=1;fontSize=12;fontStyle=0;aspect=fixed;shape=mxgraph.aws4.resourceIcon;resIcon=mxgraph.aws4.snowball_edge;" vertex="1" parent="1">
          <mxGeometry x="287" y="1340" width="78" height="78" as="geometry" />
        </mxCell>
        <mxCell id="jYq79BZ2_ffSH_7sx6qd-52" value="客户" style="text;html=1;strokeColor=none;fillColor=none;align=center;verticalAlign=middle;whiteSpace=wrap;rounded=0;" vertex="1" parent="1">
          <mxGeometry x="560" y="140" width="40" height="20" as="geometry" />
        </mxCell>
        <mxCell id="jYq79BZ2_ffSH_7sx6qd-53" value="设备" style="text;html=1;strokeColor=none;fillColor=none;align=center;verticalAlign=middle;whiteSpace=wrap;rounded=0;" vertex="1" parent="1">
          <mxGeometry x="560" y="184" width="40" height="20" as="geometry" />
        </mxCell>
        <mxCell id="jYq79BZ2_ffSH_7sx6qd-54" value="客户" style="text;html=1;strokeColor=none;fillColor=none;align=center;verticalAlign=middle;whiteSpace=wrap;rounded=0;" vertex="1" parent="1">
          <mxGeometry x="540" y="860" width="40" height="20" as="geometry" />
        </mxCell>
        <mxCell id="jYq79BZ2_ffSH_7sx6qd-55" value="设备" style="text;html=1;strokeColor=none;fillColor=none;align=center;verticalAlign=middle;whiteSpace=wrap;rounded=0;" vertex="1" parent="1">
          <mxGeometry x="540" y="904" width="40" height="20" as="geometry" />
        </mxCell>
        <mxCell id="jYq79BZ2_ffSH_7sx6qd-56" value="客户" style="text;html=1;strokeColor=none;fillColor=none;align=center;verticalAlign=middle;whiteSpace=wrap;rounded=0;" vertex="1" parent="1">
          <mxGeometry x="520" y="1130" width="40" height="20" as="geometry" />
        </mxCell>
        <mxCell id="jYq79BZ2_ffSH_7sx6qd-57" value="设备" style="text;html=1;strokeColor=none;fillColor=none;align=center;verticalAlign=middle;whiteSpace=wrap;rounded=0;" vertex="1" parent="1">
          <mxGeometry x="520" y="1334" width="40" height="20" as="geometry" />
        </mxCell>
        <mxCell id="jYq79BZ2_ffSH_7sx6qd-58" value="云端" style="text;html=1;strokeColor=none;fillColor=none;align=center;verticalAlign=middle;whiteSpace=wrap;rounded=0;" vertex="1" parent="1">
          <mxGeometry x="520" y="1232" width="40" height="20" as="geometry" />
        </mxCell>
      </root>
    </mxGraphModel>
  </diagram>
</mxfile>
